<svg width="199" height="70" viewBox="0 0 199 70" fill="none" xmlns="http://www.w3.org/2000/svg">
<path d="M2.94922 69.5C2.21589 69.5 1.61589 69.3667 1.14922 69.1C0.682552 68.8333 0.449219 68.5333 0.449219 68.2C0.449219 67.6667 0.715885 67.2667 1.24922 67C1.78255 66.6667 2.21589 66.4667 2.54922 66.4C5.08255 65.8 6.94922 65.0333 8.14922 64.1C9.41589 63.1667 10.0492 61.6 10.0492 59.4V13.3C10.0492 11.7 9.88255 10.5333 9.54922 9.8C9.21589 9 8.58255 8.4 7.64922 8C6.78255 7.6 5.51589 7.23333 3.84922 6.89999C1.91589 6.5 0.949219 5.83333 0.949219 4.9C0.949219 4.43333 1.18255 4.1 1.64922 3.9C2.18255 3.7 2.81589 3.6 3.54922 3.6C5.21589 3.6 6.71589 3.63333 8.04922 3.69999C9.38255 3.76666 10.6492 3.83333 11.8492 3.9C13.0492 3.96666 14.3826 4 15.8492 4C17.3826 4 18.8492 4 20.2492 4C21.6492 3.93333 23.0826 3.86666 24.5492 3.8C26.0159 3.73333 27.5826 3.69999 29.2492 3.69999C30.0492 3.69999 30.6492 3.8 31.0492 4C31.5159 4.13333 31.7492 4.43333 31.7492 4.9C31.7492 5.43333 31.5159 5.86666 31.0492 6.2C30.5826 6.46667 29.8492 6.7 28.8492 6.89999C26.3159 7.5 24.3159 8.16666 22.8492 8.9C21.3826 9.56666 20.6492 10.8667 20.6492 12.8V59.1C20.6492 61.1667 21.0826 62.6667 21.9492 63.6C22.8826 64.4667 24.7492 64.9 27.5492 64.9H39.1492C40.8826 64.9 42.3826 64.6333 43.6492 64.1C44.9826 63.5667 46.0159 62.9667 46.7492 62.3C48.0159 61.1667 48.9826 60.1 49.6492 59.1C50.3826 58.0333 51.1492 56.6333 51.9492 54.9C52.2826 54.1667 52.6492 53.4667 53.0492 52.8C53.4492 52.1333 53.8826 51.8 54.3492 51.8C54.8159 51.8 55.1492 52.0333 55.3492 52.5C55.5492 52.9 55.6492 53.3 55.6492 53.7C55.6492 53.8333 55.6159 54 55.5492 54.2C55.4826 54.4 55.4492 54.6 55.4492 54.8C54.9826 56.6 54.5492 58.2 54.1492 59.6C53.7492 61 53.4159 62.3333 53.1492 63.6C52.9492 64.8667 52.7826 66.2333 52.6492 67.7C52.5826 68.1667 52.4492 68.6 52.2492 69C52.0492 69.3333 51.6826 69.5 51.1492 69.5C48.5492 69.5 45.7826 69.4667 42.8492 69.4C39.9159 69.3333 36.9492 69.2667 33.9492 69.2C30.9492 69.2 27.9826 69.1667 25.0492 69.1C22.1826 69.0333 19.4159 69 16.7492 69C15.1492 69 13.3492 69.0333 11.3492 69.1C9.41589 69.1667 7.61589 69.2333 5.94922 69.3C4.34922 69.4333 3.34922 69.5 2.94922 69.5ZM58.9453 69.5C58.1453 69.5 57.4786 69.3667 56.9453 69.1C56.412 68.9 56.1453 68.5667 56.1453 68.1C56.1453 67.5667 56.412 67.1333 56.9453 66.8C57.4786 66.4667 58.212 66.1333 59.1453 65.8C60.9453 65.2667 62.5786 64.4667 64.0453 63.4C65.512 62.3333 66.712 60.7 67.6453 58.5C69.4453 54.4333 71.112 50.5667 72.6453 46.9C74.1786 43.1667 75.6453 39.5 77.0453 35.9C78.4453 32.3 79.8786 28.6 81.3453 24.8C82.812 20.9333 84.312 16.8333 85.8453 12.5C86.4453 10.9667 86.8786 9.7 87.1453 8.7C87.412 7.63333 87.5786 6.7 87.6453 5.9C88.512 5.7 89.312 5.5 90.0453 5.3C90.7786 5.03333 91.5786 4.66666 92.4453 4.2C93.2453 3.8 93.8453 3.23333 94.2453 2.5C94.712 1.7 95.0786 1.13333 95.3453 0.799996C95.4786 0.73333 95.612 0.699997 95.7453 0.699997C95.9453 0.633331 96.112 0.733332 96.2453 0.999999C96.4453 1.33333 96.5786 1.7 96.6453 2.1C96.7786 2.5 96.912 2.93333 97.0453 3.4C98.5786 8.26667 100.145 13.2333 101.745 18.3C103.412 23.3 105.045 28.2 106.645 33C108.245 37.8 109.745 42.2667 111.145 46.4C112.545 50.4667 113.745 54.0333 114.745 57.1C115.479 59.3 116.345 61 117.345 62.2C118.345 63.3333 119.412 64.2 120.545 64.8C121.679 65.3333 122.912 65.7333 124.245 66C125.245 66.2 125.979 66.5 126.445 66.9C126.979 67.3 127.245 67.7667 127.245 68.3C127.245 68.7 126.979 68.9667 126.445 69.1C125.979 69.3 125.379 69.4 124.645 69.4C123.579 69.4 122.179 69.3333 120.445 69.2C118.712 69.1333 116.912 69.0667 115.045 69C113.179 68.9333 111.479 68.9 109.945 68.9C108.679 68.9 107.279 68.9 105.745 68.9C104.212 68.9 102.745 68.9333 101.345 69C100.012 69.0667 98.8453 69.1 97.8453 69.1C97.0453 69.1 96.3786 69 95.8453 68.8C95.3786 68.5333 95.1453 68.2 95.1453 67.8C95.1453 67.2667 95.4453 66.8333 96.0453 66.5C96.6453 66.1667 97.3453 65.9333 98.1453 65.8C100.412 65.4 102.045 64.8 103.045 64C104.112 63.2 104.545 62.1333 104.345 60.8C104.279 59.6667 104.045 58.2667 103.645 56.6C103.245 54.8667 102.779 53.0667 102.245 51.2C101.712 49.2667 101.212 47.5 100.745 45.9C100.612 45.3667 100.379 45.0333 100.045 44.9C99.712 44.7667 99.1453 44.7 98.3453 44.7H79.8453C79.512 44.7 79.212 44.8333 78.9453 45.1C78.6786 45.3 78.412 45.7333 78.1453 46.4C77.9453 47.2 77.612 48.2333 77.1453 49.5C76.7453 50.7 76.3453 52 75.9453 53.4C75.5453 54.7333 75.1786 56 74.8453 57.2C74.5786 58.3333 74.412 59.1667 74.3453 59.7C74.1453 61.3667 74.5453 62.7 75.5453 63.7C76.612 64.6333 78.1786 65.3667 80.2453 65.9C82.2453 66.4333 83.2453 67.1 83.2453 67.9C83.2453 68.3667 82.9786 68.7 82.4453 68.9C81.9786 69.0333 81.3453 69.1 80.5453 69.1C79.2786 69.1 77.812 69.0667 76.1453 69C74.4786 68.9333 72.712 68.9 70.8453 68.9C68.712 68.9 66.6453 69 64.6453 69.2C62.6453 69.4 60.7453 69.5 58.9453 69.5ZM82.6453 40.6H97.2453C98.1786 40.6 98.6453 40.4333 98.6453 40.1C98.6453 39.9 98.612 39.7333 98.5453 39.6C98.5453 39.4667 98.512 39.2667 98.4453 39L91.0453 15.3C90.712 14.2333 90.4453 13.7 90.2453 13.7C90.112 13.7 89.8786 14.2 89.5453 15.2L80.8453 39C80.712 39.4 80.6453 39.6667 80.6453 39.8C80.6453 40.1333 80.812 40.3667 81.1453 40.5C81.5453 40.5667 82.0453 40.6 82.6453 40.6ZM163.77 69.7C162.503 69.7 160.636 69.6333 158.17 69.5C155.77 69.3667 153.203 69.2333 150.47 69.1C147.736 69.0333 145.303 69 143.17 69C141.836 69 140.57 69.0333 139.37 69.1C138.236 69.1667 137.036 69.2333 135.77 69.3C134.503 69.3667 133.036 69.4 131.37 69.4C130.636 69.4 130.003 69.3 129.47 69.1C129.003 68.9 128.77 68.5667 128.77 68.1C128.77 67.5667 129.003 67.2 129.47 67C129.936 66.7333 130.67 66.5 131.67 66.3C134.203 65.8333 135.936 65.1 136.87 64.1C137.87 63.1 138.37 61.4667 138.37 59.2V14C138.37 11.7333 137.87 10.1333 136.87 9.2C135.936 8.2 134.203 7.43333 131.67 6.89999C130.67 6.7 129.936 6.46667 129.47 6.2C129.003 5.93333 128.77 5.53333 128.77 5C128.77 4.53333 129.003 4.2 129.47 4C130.003 3.73333 130.636 3.6 131.37 3.6C133.036 3.6 134.503 3.63333 135.77 3.69999C137.036 3.76666 138.27 3.83333 139.47 3.9C140.67 3.9 142.036 3.9 143.57 3.9C144.636 3.9 146.003 3.86666 147.67 3.8C149.336 3.73333 151.103 3.63333 152.97 3.5C154.836 3.36667 156.57 3.26666 158.17 3.19999C159.77 3.13333 161.003 3.1 161.87 3.1C168.003 3.1 173.37 3.9 177.97 5.49999C182.636 7.1 186.503 9.36667 189.57 12.3C192.636 15.1667 194.936 18.5333 196.47 22.4C198.07 26.2667 198.87 30.4667 198.87 35C198.87 39.6667 198.003 44.1 196.27 48.3C194.603 52.4333 192.17 56.1333 188.97 59.4C185.836 62.6 182.136 65.1333 177.87 67C173.603 68.8 168.903 69.7 163.77 69.7ZM162.47 65.6C167.403 65.6 171.703 64.4 175.37 62C179.036 59.6 181.87 56.2667 183.87 52C185.87 47.6667 186.87 42.7 186.87 37.1C186.87 32.3667 186.17 28.1667 184.77 24.5C183.37 20.7667 181.47 17.6 179.07 15C176.736 12.4 174.003 10.4333 170.87 9.1C167.803 7.7 164.57 7 161.17 7C158.57 7 156.336 7.1 154.47 7.3C152.67 7.43333 151.303 7.86666 150.37 8.6C149.436 9.33333 148.97 10.5667 148.97 12.3V56.5C148.97 59.0333 149.57 60.9667 150.77 62.3C152.036 63.5667 153.703 64.4333 155.77 64.9C157.836 65.3667 160.07 65.6 162.47 65.6Z" fill="#FFC800"/>
</svg>
